<?xml version="1.0" encoding="UTF-8" standalone="no"?>
<svg
   viewBox="0 0 124.59364 124.0951"
   version="1.1"
   id="svg2395"
   sodipodi:docname="instagram.svg"
   width="124.59364"
   height="124.0951"
   inkscape:export-filename="../1126521d/twitter.svg"
   inkscape:export-xdpi="96"
   inkscape:export-ydpi="96"
   xmlns:inkscape="http://www.inkscape.org/namespaces/inkscape"
   xmlns:sodipodi="http://sodipodi.sourceforge.net/DTD/sodipodi-0.dtd"
   xmlns="http://www.w3.org/2000/svg"
   xmlns:svg="http://www.w3.org/2000/svg">
  <defs
     id="defs2399" />
  <sodipodi:namedview
     id="namedview2397"
     pagecolor="#ffffff"
     bordercolor="#000000"
     borderopacity="0.25"
     inkscape:showpageshadow="2"
     inkscape:pageopacity="0.0"
     inkscape:pagecheckerboard="0"
     inkscape:deskcolor="#d1d1d1"
     showgrid="false" />
  <path
     d="M 62.296737,0 C 28.033529,0 0,27.97123 0,62.42133 0,93.5697 22.800605,119.42284 52.578443,124.0951 V 80.48739 H 36.755079 V 62.42133 H 52.578443 V 48.65375 c 0,-15.63648 9.282214,-24.23343 23.548174,-24.23343 6.79035,0 13.89217,1.18363 13.89217,1.18363 v 15.3873 h -7.84939 c -7.72479,0 -10.154367,4.79685 -10.154367,9.71829 v 11.71179 h 17.318497 l -2.80335,18.06606 H 72.01503 V 124.0951 A 62.29674,62.29674 0 0 0 124.59349,62.42133 C 124.59349,27.97123 96.559949,0 62.296737,0 Z"
     id="path2268"
     style="fill:#029bd7;fill-opacity:1;stroke-width:6.22967" />
</svg>
