<?xml version="1.0" encoding="UTF-8" standalone="no"?>
<svg
   viewBox="0 0 124.59365 125.12226"
   version="1.1"
   id="svg2395"
   sodipodi:docname="face.svg"
   width="124.59365"
   height="125.12226"
   inkscape:export-filename="../1126521d/twitter.svg"
   inkscape:export-xdpi="96"
   inkscape:export-ydpi="96"
   xmlns:inkscape="http://www.inkscape.org/namespaces/inkscape"
   xmlns:sodipodi="http://sodipodi.sourceforge.net/DTD/sodipodi-0.dtd"
   xmlns="http://www.w3.org/2000/svg"
   xmlns:svg="http://www.w3.org/2000/svg">
  <defs
     id="defs2399" />
  <sodipodi:namedview
     id="namedview2397"
     pagecolor="#ffffff"
     bordercolor="#000000"
     borderopacity="0.25"
     inkscape:showpageshadow="2"
     inkscape:pageopacity="0.0"
     inkscape:pagecheckerboard="0"
     inkscape:deskcolor="#d1d1d1"
     showgrid="false"
     inkscape:zoom="0.89749716"
     inkscape:cx="-103.6215"
     inkscape:cy="-122.00596"
     inkscape:window-width="1920"
     inkscape:window-height="1136"
     inkscape:window-x="1200"
     inkscape:window-y="27"
     inkscape:window-maximized="1"
     inkscape:current-layer="svg2395" />
  <path
     d="M 52.579519,124.0951 V 80.48739 H 36.756159 V 62.42134 h 15.82336 V 48.65375 c 0,-15.63647 9.28222,-24.23342 23.54818,-24.23342 6.79035,0 13.89217,1.18363 13.89217,1.18363 v 15.3873 h -7.84939 c -7.72479,0 -10.15436,4.79684 -10.15436,9.71828 v 11.7118 h 17.31849 l -2.80335,18.06605 h -14.51514 v 43.60771 c -6.202133,1.33458 -12.675708,1.40408 -19.4366,0 z"
     id="path2268-6"
     style="fill:#ffffff;fill-opacity:1;stroke-width:6.22967"
     sodipodi:nodetypes="cccccssccsscccccc" />
  <path
     d="M 62.296736,0 C 28.033528,0 0,27.97123 0,62.42133 0,93.5697 22.800604,119.42284 52.578442,124.0951 V 80.48739 H 36.755078 V 62.42133 H 52.578442 V 48.65375 c 0,-15.63648 9.282214,-24.23343 23.548171,-24.23343 6.79035,0 13.89217,1.18363 13.89217,1.18363 v 15.3873 h -7.84939 c -7.72479,0 -10.15436,4.79685 -10.15436,9.71829 v 11.71179 h 17.31849 l -2.80335,18.06606 H 72.015033 V 124.0951 A 62.29674,62.29674 0 0 0 124.59349,62.42133 C 124.59349,27.97123 96.559953,0 62.296736,0 Z"
     id="path2268"
     style="fill:#029bd7;fill-opacity:1;stroke-width:6.22967" />
</svg>
