<?xml version="1.0" encoding="UTF-8" standalone="no"?>
<svg
   viewBox="0 0 72.912957 109.31616"
   version="1.1"
   id="svg2395"
   sodipodi:docname="instagram.svg"
   width="72.912956"
   height="109.31616"
   inkscape:export-filename="../764c5946/poblacion2020.svg"
   inkscape:export-xdpi="96"
   inkscape:export-ydpi="96"
   xmlns:inkscape="http://www.inkscape.org/namespaces/inkscape"
   xmlns:sodipodi="http://sodipodi.sourceforge.net/DTD/sodipodi-0.dtd"
   xmlns="http://www.w3.org/2000/svg"
   xmlns:svg="http://www.w3.org/2000/svg">
  <defs
     id="defs2399" />
  <sodipodi:namedview
     id="namedview2397"
     pagecolor="#ffffff"
     bordercolor="#000000"
     borderopacity="0.25"
     inkscape:showpageshadow="2"
     inkscape:pageopacity="0.0"
     inkscape:pagecheckerboard="0"
     inkscape:deskcolor="#d1d1d1"
     showgrid="false" />
  <path
     d="m 72.430223,101.53252 -2.6128,-4.402797 -3.0025,-5.05133 h 0.1297 v -0.12894 h -0.1297 v -0.1288 h -0.1327 l 0.1327,-0.12893 v -0.1296 -0.1316 -0.1288 h 0.1297 v -0.12853 -0.1304 l 0.1327,-0.12894 -0.1327,-0.13106 v -0.12627 -0.13147 l -0.1297,-0.12893 h 0.1297 v -0.1296 -0.12893 h 0.1327 v -0.1312 -0.1288 h 0.1288 v -0.12894 -0.13 h 0.1312 v -0.12853 -0.1288 -0.1316 h 0.1288 v -0.13 l -0.1288,-0.1288 h 0.1288 0.1324 v -0.12893 h 0.1304 v -0.1312 l -0.1304,-0.12734 v -0.1312 h -0.1324 v -0.1288 h -0.1288 l -0.1312,-0.12893 v -0.1288 h -0.1288 v -0.13013 h -0.1327 -0.1297 v -0.13107 -0.12893 h -0.1327 l -0.1273,-0.1288 v -0.12854 h -0.1327 v -0.1304 -0.1312 h -0.13 v -0.12653 -0.1312 -0.12893 h -0.13 v -0.1296 -0.1288 h -0.13 -0.1326 v -0.12894 h -0.129 v -0.1312 -0.1288 h -0.1322 v -0.13 h -0.13 -0.13 -0.1296 v -0.12893 h -0.1327 v -0.12853 h -0.13 -0.1301 -0.13 v -0.1304 h -0.13 l -0.1323,0.1304 h -0.1277 -0.1339 -0.13 -0.13 -0.13 -0.1327 v 0.12853 h -0.1296 -0.1304 v 0.12893 0.13 h -0.1296 v 0.1288 h -0.1316 -0.13 -0.1312 -0.1288 l -0.1322,-0.1288 h -0.1304 -0.1323 -0.13 -0.1301 -0.1288 -0.1312 v -0.13 h -0.1311 -0.1312 v -0.12893 h -0.1289 -0.1327 v -0.12853 l -0.13,0.12853 h -0.1296 -0.1327 -0.13 l -0.13,0.12893 h -0.13 v 0.13 0.1288 h -0.1301 -0.13 v 0.1312 h -0.1311 -0.1304 -0.1322 v 0.12894 h -0.13 v -0.12894 -0.1312 h -0.1302 -0.13 v -0.1288 h -0.1322 v -0.13 h -0.1304 v -0.12893 h -0.1296 -0.1304 v -0.12853 h -0.1312 v -0.1304 h -0.13 -0.1311 -0.1289 -0.1327 -0.1296 -0.1327 -0.1273 -0.1327 v -0.1288 h -0.1301 -0.13 -0.13 l -1.6973,-0.1312 h -0.3927 l -0.13,-0.12894 h -0.1327 v -0.1284 h -0.1274 v -0.13013 h -0.1327 v -0.1288 -0.1312 h -0.1296 v -0.1288 -0.12893 h -0.1327 v -0.13 h 0.1327 v -0.12894 h -0.1327 v -0.12853 h 0.1327 v -0.1288 h -0.1327 v -0.1316 -0.13 -0.1288 -0.12853 -0.12894 h -0.1289 v -0.13106 -0.13 -0.12894 -0.12893 -0.13 h -0.1311 v -0.13107 h -0.13 v -0.12893 h -0.1312 v -0.12893 -0.1288 h -0.1304 v -0.13 -0.1312 h -0.1322 v -0.12627 h -0.1278 -0.1322 -0.13 v -0.13107 h -0.13 l -0.1302,-0.12893 h -0.131 v -0.13 h 0.131 v -0.12893 -0.13147 -0.12853 -0.12894 -0.13 -0.1288 -0.12893 -0.12853 -0.13147 l 0.1302,-0.1296 h -0.1302 v -0.12893 h 0.1302 v -0.12894 -0.1288 h 0.13 v -0.13 -0.1316 h 0.13 v -0.12853 h 0.1322 v -0.1288 h 0.1278 v -0.13 -0.12893 h 0.1322 v -0.12894 -0.13106 l 0.1304,-0.12894 v -0.1296 -0.12893 -0.1288 -0.12893 -0.1312 -0.1304 -0.1284 -0.12894 l -0.1304,-0.12893 v -0.13 -0.13107 h -0.1322 v -0.12893 h -0.1278 v -0.12893 h -0.1322 v -0.1288 -0.1296 -0.12894 -0.1312 -0.1288 h -0.13 v -0.12893 -0.1304 -0.13107 -0.12893 h -0.13 v -0.12853 -0.13 -0.12894 h -0.1302 v -0.1288 l -0.131,-0.12893 v -0.13107 h 0.131 v -0.12973 -0.1288 -0.12893 -0.12894 h -0.131 v -0.13106 h 0.131 v -0.1304 -0.12894 -0.1288 -0.12813 -0.1304 -0.1312 -0.12893 h 0.1302 v -0.1288 h -0.1302 v -0.12894 -0.1296 -0.12893 -0.1288 -0.1312 -0.1304 -0.1288 -0.12853 -0.12854 -0.1304 h 0.1302 v -0.1312 -0.1288 h 0.13 v -0.12893 h -0.13 v -0.1288 -0.12973 -0.1288 -0.1312 -0.12894 -0.1288 -0.1304 -0.1312 -0.12626 -0.13107 -0.12893 -0.13 -0.1288 -0.12894 h -0.1302 v -0.1312 -0.1288 -0.13 -0.12853 h 0.1302 v -0.12893 -0.13107 -0.12787 -0.13106 h 0.13 v -0.12894 -0.1288 -0.13013 -0.13 -0.13 -0.1288 -0.12893 -0.13 -0.12854 h 0.13 v -0.13146 -0.12854 h 0.1322 0.1278 v -0.12893 h 0.1322 v -0.13 h 0.1304 v -0.1288 -0.12893 h 0.1312 v -0.1312 -0.1288 -0.13 h 0.13 v -0.12894 -0.12893 -0.13 -0.13107 h 0.1311 v -0.12893 h -0.1311 v -0.12893 -0.1284 -0.13014 h 0.1311 v -0.1288 -0.12893 -0.13107 -0.12893 -0.12893 -0.13 l -0.1311,-0.1288 v -0.1312 -0.12894 h -0.13 v -0.13 -0.1288 h -0.1312 v -0.12853 h -0.1304 v -0.12893 -0.13 -0.13107 h -0.1322 v -0.12893 l 0.1322,-0.12894 h 0.1304 v -0.1288 h -0.1304 l -0.1322,0.1288 v -0.1288 -0.1312 -0.12893 -0.13 -0.1284 -0.1304 -0.12893 h -0.1278 v -0.12854 h -0.1322 v -0.13 h -0.13 v -0.1304 h -0.13 v -0.12853 h -0.1302 -0.131 v -0.13 h -0.13 -0.1312 l 0.1312,-0.1288 h -0.1312 l -0.13,-0.13 v -0.12893 -0.13 -0.13 h 0.13 v -0.12854 -0.1304 -0.12893 h 0.1312 0.13 v -0.1296 -0.1304 h 0.131 0.1302 v -0.12893 h 0.13 v -0.1284 h 0.13 0.1322 0.1278 v -0.13 h 0.1322 0.1304 0.1312 v -0.1304 h 0.13 v -0.12974 h 0.1311 0.1289 v -0.12773 h 0.1327 v -0.13 -0.1296 h -0.1327 v -0.12893 h 0.1327 v -0.13107 -0.12893 h 0.1296 v -0.1304 h 0.1327 0.1274 v 0.1304 h 0.1327 0.13 0.1311 v -0.1304 -0.12894 h 0.1289 v -0.1288 h 0.1327 v -0.12853 h -0.1327 v -0.13 -0.1312 h -0.1289 v -0.1288 h 0.1289 0.1327 v -0.12893 -0.12894 -0.1296 h 0.13 v -0.1288 h 0.13 v -0.1316 -0.12853 h -0.13 v -0.1288 h -0.13 v -0.1304 h 0.13 v -0.12893 h 0.13 0.1312 0.13 0.13 l 0.13,0.12893 h 0.13 0.1322 v -0.12893 h 0.13 0.1312 0.1312 0.1288 v 0.12893 h 0.1327 v 0.1304 h 0.13 v 0.1288 0.12853 h 0.13 0.1301 v 0.1316 h 0.1327 v 0.1288 h 0.1273 v 0.1296 h 0.1327 v 0.12894 0.12893 h 0.1296 0.1327 v 0.1288 h 0.1289 v 0.1312 h 0.1311 0.13 v -0.1312 h -0.13 v -0.1288 h 0.13 v -0.12893 -0.12894 -0.1296 -0.1288 h -0.13 v -0.1316 l -0.1311,-0.12853 v -0.1288 -0.1304 h 0.1311 0.13 v -0.12893 -0.1312 h 0.1312 v -0.1288 h -0.1312 v -0.12894 -0.1296 -0.12893 -0.13 -0.12853 -0.13147 -0.12893 h -0.13 v -0.1284 -0.12894 -0.1304 -0.1296 -0.1304 -0.12893 -0.1288 h -0.1311 v -0.12973 h -0.1289 v -0.1304 -0.1284 h -0.1327 -0.1296 -0.1327 v -0.12854 h -0.1273 -0.1327 v -0.1304 -0.13 -0.12853 -0.1304 h -0.1301 v -0.13 l 0.1301,-0.12853 v -0.1304 h 0.1327 v -0.1288 h 0.1273 v -0.12974 h 0.1327 v -0.1288 l 0.1296,0.1288 v -0.1288 -0.13 h -0.1296 v -0.13013 l -0.1327,-0.1288 v -0.12893 h 0.1327 v -0.13 h -0.1327 v -0.13 h 0.1327 v -0.13 h -0.1327 v -0.12894 -0.12853 h -0.1273 v -0.1288 h 0.1273 0.1327 v -0.1304 h 0.1296 0.1327 0.1289 v -0.1312 -0.1288 h -0.1289 v -0.12853 -0.13 -0.12894 -0.1312 h -0.1327 v -0.12653 -0.1312 h -0.1296 v -0.13 -0.1288 h -0.1327 v -0.12853 -0.1304 -0.13 h -0.1273 v -0.13 -0.12854 h -0.1327 v 0.12854 h -0.1301 v -0.12854 h 0.1301 v -0.12893 h 0.1327 v -0.13 h -0.1327 -0.1301 v -0.12893 -0.13 h -0.13 v -0.13 -0.1288 h 0.13 l -0.13,-0.13014 h -0.13 v -0.1288 -0.13 -0.12893 h -0.1327 v -0.12893 -0.13107 -0.12853 -0.1304 h -0.1288 v -0.12854 -0.1288 -0.1312 -0.1288 l -0.1312,-0.12893 h 0.1312 v -0.13 h -0.1312 -0.1312 v 0.13 l -0.13,-0.13 h 0.13 v -0.13 l -0.13,-0.13 h 0.13 v -0.12893 -0.12894 h 0.1312 v -0.1284 -0.1316 -0.12893 h 0.1312 v -0.1296 -0.1288 h -0.1312 v -0.1304 h 0.1312 l -0.1312,-0.12853 v -0.12894 -0.13 -0.13 h 0.1312 0.1288 v -0.12893 h -0.1288 v -0.13 -0.1288 -0.1312 h 0.1288 v -0.12893 -0.1296 -0.1288 h 0.1327 v -0.12893 h -0.1327 -0.1288 l -0.1312,-0.12894 h -0.1312 l -0.13,-0.13 v -0.13146 -0.12854 -0.12893 -0.1288 -0.13 -0.12973 -0.12814 -0.13106 h 0.13 0.1312 v -0.12894 h -0.1312 v -0.1296 h -0.13 l 0.13,-0.1304 -0.13,-0.12893 v -0.12853 -0.13 h -0.1322 -0.13 v 0.13 h 0.13 v 0.12853 h -0.13 v -0.12853 h -0.13 l -0.13,0.12853 v -0.12853 h -0.13 v -0.13 h 0.13 0.13 v -0.1304 h -0.13 -0.13 v -0.1284 h -0.1312 -0.13 v -0.12894 l 0.13,-0.13 v -0.1296 -0.1304 h -0.13 -0.13 l -0.2616,-0.12893 h -0.1311 l -0.13,0.12893 v -0.12893 l -0.1327,-0.1296 -0.2601,-0.25933 -1.3061,-1.4252 -0.3902,-0.38747 -4.3089,-4.6616 -0.2624,-0.25893 -1.1739,-1.29414 -0.1322,-0.1288 -0.2616,-0.26013 h -0.13 v -0.13 h -0.1323 l -0.1277,0.13 h -0.13 v -0.13 h 0.13 v -0.1288 -0.12893 -0.1296 h 0.1277 v 0.1296 h 0.1323 v -0.1296 l -0.1323,-0.1316 v -0.1288 h -0.1277 -0.13 -0.13 v -0.12854 h -0.1327 -0.1297 -0.1303 v -0.13 h 0.1303 0.1297 v -0.12893 l -0.1297,-0.12893 h -0.1303 -0.1312 v 0.12893 0.12893 h -0.13 v -0.12893 -0.12893 -0.1288 h -0.1323 -0.1316 -0.1285 v -0.1312 h -0.13 -0.1304 -0.1323 v -0.1288 -0.25894 l -0.26,-0.77626 -0.5238,-2.59094 -0.39,-1.81266 -0.7851,-3.23639 -0.9139,-5.698003 -1.3036,-3.62614 -0.5237,-2.0704 -0.2612,-0.77786 h 0.1296 v -0.13 -0.13 h -0.1296 v -0.1288 h -0.1312 -0.1304 -0.1296 V 9.20773 h 0.1296 v -0.13 h 0.1304 0.1312 V 8.9488 8.8192 8.6888 l -0.1312,-0.12893 v -0.1296 h -0.1304 l -0.1296,0.1296 h -0.13 V 8.43027 8.30133 8.17107 8.04253 h -0.1327 -0.13 -0.13 -0.13 v 0.12854 l -0.1312,0.13026 v 0.12894 h -0.1312 v 0.1296 h -0.1304 v -0.1296 h -0.1296 V 8.30133 8.17107 l 0.1296,-0.12854 v -0.13 -0.1304 h -0.1296 -0.1312 V 7.6536 h -0.1304 v 0.12853 h -0.13 -0.1322 V 7.6536 l 0.1322,-0.13 V 7.39467 7.26507 h -0.1322 v -0.1304 h -0.13 l -0.1304,-0.12894 -0.1296,-0.1288 h -0.1327 -0.1289 v 0.1288 0.12894 0.1304 l 0.1289,0.1296 v 0.12893 0.13 h -0.1289 v 0.12853 h -0.1311 -0.1312 -0.13 V 7.6536 h -0.13 -0.13 v -0.13 h -0.1304 V 7.39467 h -0.132 -0.1304 v -0.1296 h -0.1323 l -0.1277,0.1296 h -0.1323 -0.1304 -0.1296 -0.1312 -0.13 -0.13 l -0.1322,-0.1296 h -0.1304 -0.13 -0.13 v 0.1296 h -0.1312 v 0.12893 0.13 0.12853 0.1304 0.13 0.12854 0.13026 0.12894 h -0.1315 v 0.1296 h -0.1297 -0.1311 -0.1304 V 8.6888 l -0.1296,0.1304 h -0.1304 -0.1324 -0.13 -0.13 v 0.1296 h -0.1304 -0.1323 -0.1285 v 0.12893 h -0.1315 v 0.13 l -0.1285,0.12894 h -0.1327 l -0.13,0.1288 h -0.1326 v -0.1288 h -0.1274 V 9.20773 h -0.1326 v -0.13 h -0.13 -0.1323 -0.1279 V 8.9488 h -0.1322 V 8.8192 8.6888 h 0.1322 V 8.55987 8.43027 h -0.1322 l -0.1288,-0.12894 h -0.1316 V 8.17107 h -0.1296 V 8.04253 h -0.1312 v -0.13 l -0.13,-0.1304 V 7.6536 7.5236 h -0.1327 l -0.1296,-0.25853 v -0.1304 h -0.1304 V 7.00573 h -0.13 -0.13 l -0.1312,-0.1288 -0.1315,-0.12973 V 6.6184 h 0.1315 V 6.4872 h 0.1312 l 0.13,-0.12773 0.13,-0.13 h 0.1304 0.1296 v -0.1304 h 0.1327 v -0.12854 -0.13 h 0.13 V 5.71053 5.582 5.4516 5.3228 h 0.1312 V 5.19387 h 0.1296 v -0.1296 l -0.1296,-0.1304 h -0.1312 V 4.80413 4.67533 l -0.13,-0.12893 V 4.41533 4.2876 4.1564 4.02747 h -0.1327 v -0.1284 -0.1304 h -0.1296 V 3.63973 l -0.1304,-0.1312 h -0.13 -0.13 v -0.1288 h -0.1312 V 3.2508 h -0.1315 V 3.12187 h -0.1312 -0.1296 V 3.2508 h -0.1304 -0.1296 V 3.12187 2.99227 h 0.1296 l 0.1304,-0.1304 h 0.1296 V 2.73453 2.60333 2.47333 2.34453 2.216 2.0856 1.95667 h 0.1312 V 1.8256 1.69667 h -0.1312 -0.1296 -0.1304 V 1.56773 h -0.1296 v -0.1288 -0.1312 h 0.1296 V 1.17893 1.0504 0.92039999 h -0.1296 v -0.13 h -0.1326 -0.13 -0.1302 v -0.12893 -0.13 -0.13 l 0.1302,-0.12894 h -0.1302 v -0.12853 h -0.13 -0.1304 -0.131 -0.1312 -0.129 v 0.12853 h -0.1322 -0.13 v 0.12894 l -0.1323,0.13 v -0.13 h -0.1277 -0.1323 l -0.1304,0.13 v 0.13 h -0.13 v 0.12893 0.13 l -0.13,0.13000001 v 0.12853 0.1288 h -0.1323 v 0.1312 h -0.1289 -0.1327 -0.1296 -0.13 v -0.1312 h -0.1301 -0.1323 v 0.1312 h -0.1304 -0.13 v -0.1312 h -0.13 -0.13 v 0.1312 l -0.1312,0.1288 V 1.69667 1.8256 1.95667 2.0856 h 0.1312 V 2.216 l -0.1312,0.12853 h -0.131 -0.1312 v 0.1288 h -0.1304 v 0.13 0.1312 h -0.1296 v 0.12734 0.1304 h -0.1304 -0.1323 -0.13 l -0.13,-0.1304 h -0.1301 -0.13 -0.1311 -0.1316 -0.1284 -0.1327 -0.1301 -0.1327 -0.1273 -0.1327 v 0.1304 h -0.1296 v 0.1296 0.12893 h -0.1304 v 0.12893 h -0.13 v 0.1288 h -0.1322 -0.129 v 0.1312 h -0.1322 -0.1304 l -0.1312,0.12894 v 0.1304 0.1284 0.12893 0.1312 h -0.1284 l -0.13269,0.12773 -0.1297,0.13107 h -0.1304 v 0.12893 h -0.13 v 0.1288 h -0.13 v 0.12974 h -0.1311 v 0.1304 h -0.1316 v 0.1296 h -0.1296 -0.1312 -0.1304 l -0.1296,0.12893 h -0.1327 -0.13 -0.13 V 5.19387 h -0.13 -0.1304 v -0.1296 h -0.1297 -0.1327 -0.131 -0.13 v -0.1304 h -0.13 v 0.1304 h -0.1316 -0.1286 -0.1322 v 0.1296 l -0.1288,0.12893 h -0.1312 -0.1304 l -0.1323,0.1288 h -0.1273 V 5.582 5.71053 h -0.1343 -0.1296 v 0.13 h -0.1327 v 0.13 h -0.1273 -0.1323 v -0.13 h -0.1277 -0.1324 -0.1303 -0.1301 -0.1311 -0.1312 -0.131 -0.1304 -0.1298 -0.1304 -0.1296 l -0.1326,-0.13 h -0.13 l -0.13,-0.12853 h -0.13 -0.1312 V 5.4516 h -0.1311 -0.1304 -0.1312 -0.13 V 5.582 h -0.13 -0.13 -0.1327 -0.1274 -0.1327 -0.1296 -0.1327 V 5.4516 h -0.1288 -0.1324 -0.1304 -0.1296 -0.13 -0.1326 V 5.3228 l -0.1274,-0.12893 h 0.1274 v -0.1296 -0.1304 h -0.1274 V 4.80413 l -0.1326,-0.1288 h 0.1326 V 4.5464 4.41533 4.2876 4.1564 4.02747 h 0.1274 V 3.89907 3.76867 3.63973 h -0.1274 v -0.1312 l -0.1326,0.1312 v 0.12894 l -0.1296,0.1304 -0.1304,0.25733 v 0.1312 0.12773 l -0.1312,0.26 v 0.1288 0.12974 l -0.1312,0.26 -0.1315,0.25773 V 5.582 l -0.1296,0.12853 v 0.13 l -0.1304,0.25854 h -0.1297 v 0.1304 h -0.1304 l -0.1323,0.13 h -0.13 -0.13 l -0.13,-0.13 -0.1315,-0.1304 -0.1312,-0.12854 h -0.13 v -0.13 h -0.1312 -0.13 l -0.13,0.13 -0.13,0.12854 v 0.1304 l -0.1322,0.13 v 0.51746 l -0.1278,0.25774 v 0.1304 l -0.1324,0.1296 -0.1304,0.12893 -0.1321995,0.13 -0.1288,0.25893 v 0.25854 0.2592 0.1296 0.12893 0.1304 h 0.1288 l 0.1321995,0.1296 0.1304,0.12893 v 0.13 l 0.1324,0.12894 v 0.2588 0.38893 0.25773 0.38974 0.12893 0.2588 0.26 0.12893 0.25894 l -0.1324,0.1288 -0.1304,0.12973 v 0.1304 0.25853 l -0.1321995,0.2588 v 0.26014 l -0.1288,0.1288 -0.1312,0.12893 -0.1311,0.13 h -0.1301 v 0.1288 l -0.13,0.26013 v 0.1288 0.38854 0.25893 0.13 0.12893 l 0.13,0.1288 v 0.26014 l 0.1301,0.2588 v 0.12893 0.2596 0.25933 l 0.1311,0.12854 v 0.25893 0.26 0.1288 0.25893 l 0.1312,0.38747 v 0.2604 0.1284 0.26053 0.2584 l -0.1312,0.25787 v 0.13 0.13107 l -0.1311,0.12853 -0.1301,0.12893 h -0.13 -0.1323 -0.1277 -0.1323 v 0.128802 0.25894 0.2604 l 0.1323,0.12853 0.1277,0.13 0.1323,0.25893 0.13,0.1288 0.1301,0.13014 0.1311,0.1296 v 0.1288 0.1304 0.25853 l 0.1312,0.1304 -1.3584,3.198261 -0.079,0.0375 -0.1302,0.1304 -0.1314,0.26 -0.1296,0.25774 -0.1304,0.38853 -0.1298,0.26 v 0.12893 0.25894 0.1288 0.12893 h -0.1325 v 0.1312 h -0.1301 v 0.1288 h -0.13 -0.13 v 0.12893 h -0.13 -0.1323 v 0.1296 l -0.1304,0.13 v 0.13 h -0.13 -0.1312 -0.13 v 0.12894 h -0.13 v 0.12893 h -0.1327 v 0.13 0.1284 h -0.1296 v 0.1304 l -0.1304,0.12893 -0.1296,0.1296 0.1296,0.1304 -0.1296,0.12894 v 0.1296 l -0.1326,0.13 h -0.129 v 0.12893 0.13 0.12893 0.2588 0.13 0.13014 l 0.129,0.1288 h 0.2622 l 0.1304,0.12853 h 0.1296 v 0.12893 l -0.1296,0.13027 v 0.1312 0.12853 0.12894 l -0.1304,0.13 v 0.1288 0.26 0.12893 l 0.1304,0.12893 v 0.13 0.12854 l -0.1304,0.1288 v 0.1316 l -0.1296,0.1296 v 0.38773 0.13 0.13013 l 0.1296,0.1288 h 0.1304 v 0.12894 0.1288 0.13013 0.13 l 0.1296,0.2588 h -0.1296 l -0.1304,0.12853 -0.1296,0.2604 v 0.12854 0.38893 0.13 0.12893 h -0.1326 -0.129 -0.1322 l -0.1304,-0.12893 -0.2598,0.12893 -0.1325,0.1288 -0.2601,0.13 -0.1296,0.13 -0.1327,0.12894 -0.1289,0.1296 -0.1311,0.1304 v 0.12973 h -0.1316 -0.1296 -0.1304 -0.1296 -0.1304 -0.1323 -0.13 -0.13 v 0.12773 l -0.1301,0.13 0.1301,0.1288 v 0.13014 0.13 h 0.13 0.2623 0.1304 0.1296 v 0.1304 0.1284 l 0.1304,0.12893 v 0.13 l 0.1296,0.12893 h 0.1316 0.1311 v 0.1288 0.1312 h 0.1289 l 0.1327,-0.1312 h 0.2622 l 0.26,-0.1288 0.1302,-0.12893 h 0.1296 l 0.1304,-0.13 h 0.1322 0.129 l 0.2622,0.13 h 0.1304 0.2623 0.26 l 0.1312,0.12893 h 0.13 l 0.2627,0.1288 0.26,0.1312 h 0.13 l 0.1301,0.12894 0.1325,0.2584 v 0.1304 0.25853 0.25893 0.12854 h -0.1325 v 0.1304 h -0.1301 l -0.13,0.13106 h -0.13 v 0.12894 h -0.13 v 0.12893 l -0.1323,0.1288 v 0.12973 0.13027 0.12747 h -0.1304 v 0.13106 0.12894 0.1304 h -0.13 v 0.12853 h -0.1312 v 0.13 h -0.13 v 0.1288 h -0.13 v 0.12973 h -0.1327 v 0.1304 h -0.1296 -0.1304 v 0.1288 h -0.1296 v 0.12894 0.1296 0.1304 h -0.1326 v 0.12893 h 0.1326 0.1296 0.1304 v 0.1296 h 0.1296 0.1327 v -0.1296 h 0.13 0.13 0.1312 0.13 0.1304 v 0.1296 h 0.1323 0.13 v 0.12893 h 0.13 v 0.1304 h 0.13 v 0.1296 0.13 0.12894 0.1284 h 0.1301 0.1325 0.1298 0.1304 0.1296 v 0.1304 h 0.1314 0.1302 0.131 l -0.131,0.13 v 0.12853 h -0.1302 v 0.12893 0.1304 l 0.1302,0.1296 v 0.12894 h 0.131 0.129 0.1322 v 0.13106 h 0.1304 0.1323 0.1277 v -0.13106 h 0.1323 v -0.12894 -0.1296 l 0.13,-0.1304 v -0.12893 -0.12853 -0.13 -0.1304 h 0.1301 0.1311 0.1312 v 0.1304 0.13 h 0.1288 v -0.13 -0.1304 h 0.1322995 v -0.1284 h 0.1304 l 0.1324,0.1284 h 0.1277 v -0.1284 h 0.1323 v -0.12894 h 0.13 0.13 v -0.13 h 0.13 v -0.1296 h 0.1312 0.13 v -0.1304 l 0.1312,-0.12893 -0.1312,-0.1296 -0.13,-0.12893 v -0.1304 -0.1296 -0.12894 -0.1288 h -0.1312 v -0.1304 l -0.13,-0.12973 v -0.1288 -0.13 h 0.13 v -0.12853 h 0.1312 v -0.1304 -0.12894 h -0.1312 v -0.13106 h -0.13 -0.13 v -0.12747 h -0.13 v -0.13027 -0.12973 -0.1288 h -0.1323 v -0.12893 -0.12894 h -0.1277 v -0.13106 -0.1304 -0.12854 -0.12853 -0.1304 -0.13 h 0.1277 v -0.12853 h 0.1323 v 0.12853 h 0.13 0.13 0.13 0.1312 0.13 0.1312 v -0.12853 h 0.1314 0.13 0.13 0.13 0.1323 0.1304 l 0.1297,0.12853 v 0.13 0.1304 l 0.1304,0.25707 v 0.1304 h 0.1296 0.1315 0.1312 v 0.13106 0.12894 0.12893 0.1288 h 0.1312 l 0.1304,0.12973 v 0.13027 l 0.1296,0.25853 v 0.12894 l 0.1327,0.1304 v 0.12853 l -0.1327,0.13 h -0.1296 v 0.1288 0.12973 l 0.1296,0.1304 0.1327,0.1288 v 0.12894 l 0.1273,0.1296 v 0.1304 l -0.1273,0.12893 v 0.1296 0.12893 0.1304 0.1296 l -0.1327,0.13 v 0.12894 0.1284 0.1304 0.13 0.12853 0.12893 0.1304 0.1296 0.12894 0.13106 0.12814 l 0.1327,0.12973 v 0.13 0.1288 h -0.1327 -0.1296 -0.1304 v 0.12893 h -0.1312 -0.1312 v 0.12854 h -0.1315 v 0.13146 h -0.1296 -0.1304 v 0.13 h -0.1297 v 0.12894 h -0.1304 l 0.1304,0.12893 v 0.1288 0.1296 0.12893 l -0.1304,0.1312 h 0.1304 v 0.1288 0.13 0.12893 0.13 0.13 0.12894 h 0.1297 v 0.12853 l 0.1304,0.1304 v 0.1288 h -0.1304 v 0.1296 0.12893 l -0.1297,0.1316 v 0.1284 h -0.1304 v 0.12894 h -0.1323 v 0.12893 h -0.13 -0.13 v 0.13 h -0.13 v 0.13 h -0.1314 v 0.13 h -0.1312 -0.13 v 0.12893 0.1288 h -0.1312 -0.13 v 0.1312 0.1288 l -0.13,0.12854 v 0.1304 h -0.13 l 0.13,0.12853 v 0.13107 0.12893 0.12893 0.13 0.1288 0.13014 0.1288 0.13 h -0.13 v 0.13 l -0.1323,0.12893 -0.1277,0.13 v 0.12893 0.12854 0.13 0.13 h -0.1324 v 0.1304 h -0.1304 -0.1322995 l -0.1288,0.12853 h -0.1312 v 0.1288 0.13 0.1312 0.12653 0.1312 0.12894 0.13 0.12853 l -0.1311,0.1288 v 0.1312 h -0.1301 v 0.1304 0.1288 0.12853 h 0.1301 v 0.12894 h 0.1311 0.1312 v 0.13 h 0.1288 l 0.1322995,0.13 h 0.1304 l 0.1324,0.13 v 0.12893 0.1288 l 0.1277,0.13013 v 0.13 l 0.1323,0.1288 v 0.12974 h 0.13 v 0.1288 h 0.13 0.13 l 0.1312,-0.1288 h 0.13 v 0.1288 h 0.1312 l 0.1314,0.1304 0.13,-0.1304 h 0.13 v 0.1304 h 0.13 v 0.12853 h 0.1323 v 0.13 h 0.1304 v 0.1304 0.12853 0.13 0.1304 0.12854 0.1284 0.1304 l 0.1297,0.12973 v 0.1288 0.12893 0.1304 0.1296 0.1304 0.12894 0.1284 h -0.1297 v 0.12893 0.13147 0.12853 0.13 l 0.1297,0.12893 v 0.1296 0.12894 0.1288 l 0.1304,0.1312 v 0.12893 0.1304 h 0.1296 v 0.1288 0.12853 0.1316 0.1288 0.1296 0.12894 h 0.1315 0.1312 l 0.1312,-0.12894 h 0.1304 v -0.1296 h 0.1296 0.1327 0.1273 0.1327 0.13 0.1296 l 0.1304,-0.1288 h 0.1324 0.1288 v 0.1288 h 0.1326 v 0.1296 h 0.1296 0.1327 0.1275 0.1326 0.13 0.13 0.13 v 0.12894 0.12893 h 0.1312 v 0.1288 h 0.1304 v 0.1312 0.13 h -0.1304 v 0.12853 h 0.1304 v 0.1288 h 0.1311 v 0.12894 0.1304 0.12893 0.13107 h 0.1312 v -0.13107 h 0.13 v -0.12893 h 0.13 v -0.1304 h 0.13 0.1327 0.1296 v 0.1304 h 0.1304 v 0.12893 0.13107 0.38853 0.25747 l 0.1297,0.51773 v 0.1304 0.38893 l -0.1297,0.25854 v 0.13 0.12893 h -0.1304 -0.1296 -0.1327 v 0.13 h -0.13 v 0.1288 0.13 h -0.13 -0.13 v 0.12853 h -0.1312 -0.1311 l -0.1304,0.1304 v 0.13 0.12854 0.12893 0.1304 0.1284 l -0.1312,-0.1284 h -0.13 v 0.1284 h -0.13 l -0.3901,-0.1284 -0.1327,0.1284 -0.2622,0.13 h -0.1288 v -0.13 h -0.1324 v 0.13 h -0.1304 v 0.12893 h -0.1296 -0.13 -0.1327 v 0.1312 h -0.1273 v 0.1288 0.12894 h -0.1327 v 0.12893 h 0.1327 v 0.13107 0.13 0.12893 0.12853 h -0.1327 v 0.1288 h 0.1327 v 0.13 0.12894 h -0.1327 v 0.1312 0.1288 h -0.1296 v 0.13 l 0.1296,0.25786 h 0.1327 v 0.13107 h 0.1273 v 0.12893 0.1288 0.13014 0.1284 0.12893 0.12893 0.13107 0.13 h -0.1273 v 0.12893 0.12894 h 0.1273 v 0.13 h 0.1327 v 0.1288 0.1312 0.12893 h -0.1327 l -0.1273,0.1288 v 0.13 0.12893 0.12854 0.13146 0.12854 h -0.1327 v 0.13 l -0.1296,0.12893 h -0.1304 v 0.1288 h -0.1312 v 0.13 0.13 l -0.1312,0.13013 -0.1315,0.1288 h -0.1296 v 0.12894 h -0.1304 v 0.13106 0.12787 l -0.1297,0.13107 v 0.12893 h -0.1304 -0.1323 -0.13 v 0.12853 h -0.13 v 0.13 h -0.13 l -0.1314,0.1288 h -0.1312 v 0.1312 0.12894 l -0.13,0.1288 -0.1312,0.25893 -0.13,0.13107 -0.13,0.12626 v 0.2616 l -0.13,0.25774 -0.1323,0.1312 -0.2601,0.1288 v 0.12973 l -0.1304,0.1288 H 9.7535335 l -0.2623,0.25773 -0.3924,0.39014 h -0.6516 l -0.2612,0.12853 h -0.1314 v 0.1288 l -0.26,0.1304 -0.1298,0.1312 h -0.1325 -0.1301 -0.13 v 0.1288 0.12893 h -0.13 -0.2623 l -0.1304,-0.12893 h -0.13 -0.1312 l -0.26,-0.1288 -0.1327,-0.1312 -0.1296,-0.1304 -0.1304,-0.1288 -0.2622,-0.25707 -0.129,-0.1304 v -0.1312 -0.1288 -0.12893 h -0.1322 -0.1304 l -0.1296,0.12893 h -0.1302 l -0.1325,-0.12893 -0.1275,-0.1288 h -0.1326 -0.1296 -0.1327 l -0.1289,-0.12973 -0.1311,-0.1288 v -0.1312 l -0.1316,-0.12894 -0.1296,-0.2592 h -0.26 v -0.1312 h -0.1304 l -0.1323,-0.12626 -0.13,-0.13107 h -0.13 l -0.1301,-0.12893 h -0.2627 l -0.1296,-0.13 h -0.1314 -0.3902 -0.2626 -0.1296 -0.26 -0.2643 l -0.25960004,-0.1288 -0.13,-0.12894 h -0.1323 -0.1304 l 0.1304,0.12894 v 0.1288 h 0.1323 l 0.2623,0.13 H 1.0027335 l 0.2643,0.38626 h 0.1296 l 0.1304,0.1312 h 0.1296 0.3926 l 0.13,0.1304 h 0.6539 0.2601 l 0.13,0.1288 0.1323,0.26014 0.1304,0.1288 0.1296,0.12973 0.1304,0.1288 0.1296,0.12893 0.1316,0.1288 v 0.1312 l 0.1311,0.1304 v 0.12854 l 0.1289,0.25733 v 0.1304 0.1312 0.1288 h -0.1289 -0.1311 v 0.12893 h -0.1316 l 0.1316,0.25854 0.1311,0.1288 h 0.1289 l 0.1327,0.12893 h 0.1296 0.2601 l 0.1325,-0.12893 h 0.1302 0.1296 l 0.1304,0.12893 0.1322,0.1312 v 0.25853 l 0.129,0.1288 v 0.12894 l 0.1326,0.1304 v 0.26 0.12893 0.1288 l 0.1296,0.12973 h -0.1296 l 0.1296,0.13107 0.1304,0.12893 0.1296,0.1288 v 0.12894 l 0.2627,0.13 v 0.12853 h 0.13 v 0.12893 0.13107 0.1304 h 0.1312 l 0.13,0.12893 v 0.1288 h 0.1304 l -0.1304,0.1312 v 0.12894 0.1296 h 0.1304 v 0.1288 l 0.1323,-0.1288 h 0.13 v 0.1288 0.12893 h 0.13 0.13 l 0.1301,0.12893 0.1325,0.26107 0.1298,0.12893 h 0.26 l 0.2616,0.12894 h 0.26 0.2626 0.1323 0.1277 0.1323 l 0.13,0.1284 h 0.1301 0.1311 l 0.1312,0.1304 v -0.1304 h 0.1288 0.1322995 0.1304 0.1324 v 0.1304 h 0.1277 v 0.1312 h 0.1323 0.13 0.13 v -0.1312 h 0.13 0.1312 0.13 v -0.1304 -0.1284 h -0.13 v -0.12894 l 0.13,-0.12893 h 0.1312 0.1314 0.13 0.13 0.13 v 0.12893 h 0.1323 v 0.12894 0.1284 h 0.1304 v 0.1304 h 0.1297 0.1304 v 0.1312 h 0.1296 l -0.1296,0.12893 v 0.1288 h 0.1296 v 0.12893 h 0.1315 v 0.1296 0.12894 0.13106 h 0.1312 l 0.1312,0.12894 h 0.1304 0.2623 0.1273 l 0.1327,-0.12894 h 0.5224 0.391 0.1327 0.2601 l 0.26,0.12894 0.13,-0.12894 h 0.2616 0.1311 0.2612 l 0.13,-0.13106 h 0.13 0.1327 0.1296 v 0.13106 l 0.1304,0.12894 0.1297,0.12893 h 0.1304 l 0.1311,0.13 h 0.1312 v 0.1288 l 0.131,0.12853 0.1302,0.1316 h 0.1302 0.1324 v -0.1316 l 0.1278,-0.12853 v -0.1288 -0.13 -0.25787 l 0.1322,-0.13106 v -0.12894 -0.25853 -0.25773 -0.1312 l -0.1322,-0.1304 -0.1278,-0.1284 v -0.12894 h -0.1324 v -0.12893 -0.13 -0.13107 -0.12893 -0.12893 h 0.1324 0.1278 v -0.1288 h 0.1322 v -0.1296 h 0.1274 v -0.12894 l 0.1326,-0.1312 v -0.1288 -0.12893 h 0.1296 v -0.1304 -0.13107 h 0.1343 v -0.12893 -0.12853 h 0.1273 v -0.13 h 0.1323 v -0.12894 h 0.1304 v -0.1288 h 0.1312 v -0.12893 h 0.1288 0.1323 v -0.13107 h 0.1285 l 0.1316,0.13107 v 0.12893 h 0.13 0.13 0.1311 v -0.12893 h 0.1326 v 0.12893 h 0.1298 0.1304 0.13 l 0.13,0.1288 v 0.12894 h 0.13 0.1326 0.1296 v 0.13 h 0.1304 0.1312 v -0.13 h 0.1296 0.1316 l 0.1311,-0.12894 h 0.13 0.13 l 0.1304,0.12894 h 0.1297 v 0.13 h 0.13269 0.1284 0.1312 l 0.1304,0.12853 h 0.2612 0.1323 l 0.13,0.12893 h 0.1304 0.1296 v 0.13107 h 0.1326 v 0.1304 h 0.1274 0.1326 v -0.1304 h 0.1302 l 0.1326,-0.13107 h 0.1284 0.1316 l 0.1311,-0.12893 h 0.13 v -0.12853 h 0.1301 0.13 v 0.12853 h 0.13 v 0.12893 h 0.1323 v 0.13107 h 0.1304 0.1296 v 0.1304 l 0.1304,-0.1304 h 0.1312 0.1311 0.1312 0.13 0.13 0.13 0.1304 v 0.1304 h 0.1322 l 0.1302,0.12893 0.13,-0.12893 h 0.1296 0.1326 0.129 v -0.1304 h 0.1322 v -0.13107 h 0.13 v -0.12893 -0.12853 -0.13 h 0.13 0.1304 v -0.12894 l 0.1323,0.12894 h 0.1277 0.1323 0.13 0.1323 0.1289 0.1312 0.1311 0.1304 0.13 v 0.13 h 0.1301 0.13 0.1327 0.1296 0.1304 0.1296 0.1312 0.1314 v 0.12853 h 0.1312 v 0.12893 0.13107 h -0.1312 v 0.1304 h -0.1314 v 0.12893 0.1288 h -0.1312 v 0.1312 0.12894 0.1296 l -0.1296,0.1288 0.1296,0.12893 v 0.12893 0.13107 0.13 0.12893 0.12894 0.1284 0.1304 0.1312 0.12893 h 0.1312 v 0.1288 0.12893 0.1296 0.12894 0.13106 h 0.1314 v 0.12894 h 0.1312 v 0.12893 l 0.13,0.13 v 0.1288 0.12853 0.1316 0.13 h 0.13 v 0.1288 h 0.1304 0.1296 v 0.12894 h 0.1327 l 0.13,0.12893 h 0.1312 0.1296 0.1316 v 0.1296 h 0.1288 0.1323 0.1278 l 0.1323,0.13147 h 0.13 v 0.12853 h 0.1327 v 0.12893 0.1288 h 0.1273 0.1327 v 0.13 0.12894 h 0.13 v 0.12853 h 0.1326 v 0.13147 h 0.1286 0.1314 l 0.1286,0.12893 h 0.1322 l 0.1304,0.13 h 0.13 v 0.12893 0.13107 h 0.13 v 0.12627 h 0.1324 0.1304 v -0.12627 h 0.1296 v 0.12627 0.1312 h 0.1304 v 0.13 0.1288 h -0.1304 v 0.12893 0.12893 0.13107 0.13 h -0.1296 v 0.12893 0.12894 0.13 h -0.1304 v 0.13106 0.12894 0.12853 l 0.1304,0.1288 v 0.13 0.1316 0.1288 h 0.1296 v 0.12853 h 0.1304 v 0.12894 0.13 h 0.1311 v 0.12893 h 0.1297 l 0.1315,0.1288 v 0.1312 h 0.1312 v 0.1288 h 0.13 v 0.13013 0.1284 h 0.13 v 0.12894 0.1312 0.1288 h 0.1304 v 0.1304 h 0.1323 v 0.12853 h 0.13 v 0.12893 h 0.13 v 0.13 h 0.1312 v 0.1288 h 0.1296 l 0.1304,0.1312 0.1322,0.12894 v 0.1288 0.1296 0.12893 l -0.1322,0.1312 v 0.12653 h 0.1322 0.1278 0.2626 0.132 0.1304 v 0.1312 0.1304 h 0.13 l -0.13,0.12854 v 0.1288 h -0.1304 v 0.12893 0.13107 h 0.1304 v 0.13013 h -0.1304 v 0.1288 h 0.1304 v 0.12893 0.1288 l -0.1304,0.1312 v 0.12734 0.1312 h 0.1304 v 0.12893 0.1288 h -0.1304 v 0.13 l 0.1304,0.1316 v 0.1288 0.12853 h 0.13 l 0.13,0.13 h -0.13 v 0.12894 h -0.13 v 0.1288 h -0.1304 -0.132 v 0.1312 h -0.1304 v 0.12893 h -0.1322 v 0.1296 h -0.1278 l -0.1322,0.12893 h -0.1304 l -0.1296,0.13147 h -0.1312 v 0.12627 h -0.13 l -0.13,0.13106 v 0.12894 0.1304 h -0.1323 v 0.12853 h -0.1304 v 0.1288 0.1316 h 0.1304 v 0.1296 h 0.1323 v 0.12893 h 0.13 v 0.1288 0.12894 0.1296 h 0.13 v 0.1316 0.12853 0.1288 h -0.13 v 0.12893 l 0.13,0.1304 v 0.12854 h 0.1312 l 0.1296,0.1284 v 0.1316 0.13 0.1288 h 0.1304 v 0.12893 h 0.1322 l 0.1278,0.12893 0.1322,0.1296 0.1304,0.12894 0.132,0.13106 h 0.1304 v -0.13106 h 0.13 0.13 0.13 l -0.13,0.13106 v 0.12894 0.1288 h -0.13 v 0.1304 h -0.13 v 0.12973 h -0.1304 v 0.1304 0.1284 0.12893 0.13 0.12894 0.1288 0.1312 0.12893 0.1296 h -0.132 v 0.13147 h -0.1304 v 0.12626 h -0.1322 v 0.1312 h -0.1278 v 0.1288 h -0.1322 l -0.1304,0.13 0.1304,0.12894 v 0.12893 0.13107 0.13 0.12893 h 0.1322 v 0.12893 h 0.1278 v 0.1288 0.12974 0.1288 h 0.1322 l 0.1304,0.1316 v 0.1284 h 0.132 v 0.12893 h 0.1304 l 0.13,0.13 v 0.1312 0.1288 0.12893 0.12894 0.13 h -0.13 v 0.1288 l 0.13,0.12893 0.13,0.1312 h 0.13 0.1312 0.1311 0.1289 v 0.1288 h 0.1327 v 0.13 0.12853 h -0.1327 v 0.12894 0.13 0.13 0.129997 h 0.1327 0.1296 0.1304 0.13 0.1323 0.13 0.1304 l 0.1312,0.12893 v 0.1288 h 0.1296 v 0.13 0.12893 h 0.1304 v 0.12894 0.13106 0.12894 0.13 h 0.1312 v 0.12893 h 0.1312 0.13 v -0.12893 h 0.13 v -0.13 h 0.13 v -0.12894 l 0.1326,-0.13106 h 0.13 0.1296 0.1304 l 0.1312,-0.12894 h 0.1296 l 0.1316,0.12894 h 0.1311 0.13 0.13 v 0.13106 h -0.13 v 0.12894 l -0.13,0.13 v 0.12893 h -0.1311 v 0.1284 h 0.1311 v 0.1316 0.12733 l 0.13,0.1312 h 0.13 v 0.1288 0.12894 h -0.13 v 0.1312 0.1288 h 0.13 v 0.13 0.12893 h 0.1327 v 0.12893 h 0.1274 v 0.13 0.1288 0.1312 0.12894 0.1284 h 0.1327 v 0.13 0.1304 l 0.13,0.12746 v 0.13107 h 0.13 v 0.12893 h 0.1311 v -0.12893 h 0.1316 0.1285 v -0.13107 l 0.1323,-0.12746 v -0.1304 -0.13 -0.1284 h 0.1304 0.26 0.1322 l 0.13,-0.12894 v 0.12894 h 0.13 0.1304 0.1312 v 0.1284 h 0.1296 v 0.13 l 0.1327,-0.13 v -0.1284 -0.12894 h 0.13 0.13 v -0.1312 h 0.1301 0.13 v 0.1312 h 0.1323 0.1304 v 0.12894 0.1284 0.13 0.1304 0.12746 h 0.13 v 0.13107 l 0.1296,0.12893 v 0.12894 0.13 0.1288 h 0.1312 v 0.1312 h 0.1327 v 0.12853 l 0.13,-0.12853 v -0.1312 h 0.13 v -0.1288 h 0.13 v -0.13 -0.12894 -0.12893 -0.13107 h 0.13 v -0.12746 h 0.1322 0.1304 0.13 v 0.12746 h 0.1286 l 0.1316,0.13107 h 0.1322 0.13 v 0.12893 h 0.1312 0.1303 0.1297 0.1327 0.13 0.13 v -0.12893 h 0.1277 v -0.13107 h 0.1323 0.13 0.1312 v 0.13107 h 0.1304 0.1323 0.13 0.13 v -0.13107 h 0.1326 v -0.12746 h 0.1274 v -0.1304 l 0.2624,0.1304 v -0.1304 h 0.13 0.1304 v -0.13 h 0.131 0.1298 0.1326 0.13 0.1311 v 0.13 l 0.1289,0.1304 0.13,0.12746 0.13,0.13107 0.1327,0.12893 v 0.12894 0.13 0.1288 h -0.1327 v 0.1312 0.12853 l 0.1327,0.1304 v 0.1288 0.12893 h 0.13 v 0.13107 0.12893 l 0.13,0.1296 h 0.1312 v 0.12894 0.25773 0.13 0.1316 0.12813 0.1288 0.1304 l -0.1312,0.12894 h -0.13 v 0.1288 0.12853 h -0.13 v 0.1316 0.12853 0.13 0.1288 l 0.13,0.12894 v 0.13106 0.12894 l 0.13,0.1296 v 0.12893 h -0.13 v 0.12893 h 0.13 v 0.1304 0.13107 h 0.1312 0.1316 0.1296 l 0.1311,0.12893 0.1304,0.1288 h 0.1322 0.2602 l 0.13,0.12894 h 0.13 0.1304 v -0.12894 -0.1288 h 0.1312 0.131 v -0.12893 -0.13107 -0.25933 -0.12893 l 0.1312,-0.1296 v -0.12894 h 0.13 v -0.13106 h 0.13 v -0.12894 -0.1288 h 0.13 v -0.13 -0.12853 h 0.13 0.1323 v -0.1316 h 0.1304 v -0.12853 -0.1288 h 0.1312 0.13 l -0.13,0.1288 v 0.12853 0.1316 h 0.13 v 0.12853 h 0.1312 v 0.13 h 0.13 l 0.1311,0.1288 h 0.1301 v 0.12894 l 0.13,0.13106 0.13,0.12894 v 0.1296 h 0.1323 l 0.1277,0.12893 h 0.1323 0.1304 l 0.1312,0.12893 h 0.13 l 0.131,0.1304 h 0.129 l 0.1326,0.13107 0.1296,0.12893 0.1327,0.1288 h 0.1275 l 0.1326,0.12894 h 0.2611 l 0.1289,0.1296 0.2627,0.12893 h 0.13 l 0.2612,0.1312 h 0.13 0.13 0.3923 l 0.1312,-0.1312 h 0.1312 l 0.2614,-0.38747 0.13,-0.1288 h 0.2602 l 0.1326,-0.12893 h 0.1274 l 0.1326,-0.13107 h 0.1296 l 0.2616,0.13107 h 0.1311 l 0.13,-0.13107 v -0.25933 -0.12893 l 0.1312,-0.1296 0.1304,-0.12894 0.26,-0.13106 0.1323,-0.25774 h 0.13 0.1301 v -0.13 l 0.2623,-0.12853 v -0.1316 l 0.1304,-0.12853 0.131,-0.1288 0.13,-0.12894 v -0.1304 l 0.1302,-0.1288 0.13,-0.12813 v -0.1316 l 0.13,-0.13 v -0.25773 -0.12894 l 0.13,-0.3896 v -0.12893 -0.1288 l 0.1326,-0.25893 0.1296,-0.1312 0.13,-0.2588 v -0.25787 l 0.1327,-0.25853 0.1289,-0.1304 v -0.13 -0.1284 l 0.2623,-0.26014 0.26,-0.1288 h 0.1301 0.13 l 0.1323,0.1288 h 0.1304 0.1323 0.1288 0.1312 l 0.2616,0.1312 v 0.12894 l -0.1316,0.1284 v 0.38786 l -0.13,0.13107 v 0.25787 l 0.2616,0.2588 0.1296,0.1312 0.26,-0.1312 h 0.2626 l 0.26,-0.2588 h 0.1339 0.1277 0.2623 v -0.38894 l 0.13,-0.12746 0.1301,-0.2604 h 0.13 l 0.1327,-0.1284 h 0.2596 v -0.12894 -0.1312 l -0.13,-0.1288 v -0.13 -0.12893 -0.25893 -0.1288 h 0.13 l 0.13,-0.1312 v -0.25774 -0.1312 -0.12733 l 0.1323,-0.1316 0.2616,-0.1284 0.13,-0.12893 0.13,-0.13 h 0.13 0.1326 0.1274 0.1326 l 0.2624,0.13 0.1288,0.12893 h 0.1312 0.1288 v 0.1284 0.1316 h 0.1324 v 0.12733 0.1312 h 0.1304 v 0.1288 h 0.1323 0.1277 v -0.1288 h 0.1323 l 0.1277,0.1288 h 0.1323 0.13 0.1323 v 0.12894 h 0.1289 0.2627 0.13 v -0.12894 h 0.13 0.13 0.1301 0.1327 l 0.1296,-0.1288 h 0.13 0.1312 0.1302 0.1324 0.13 v -0.1312 h 0.13 0.13 v -0.12733 h 0.13 l 0.1312,-0.1316 h 0.1311 0.1304 0.1297 v 0.1316 h 0.1315 0.1312 l 0.1288,0.12733 h 0.1327 l 0.1297,0.1312 h 0.1303 l 0.1297,-0.1312 v 0.1312 l 0.1327,-0.1312 h 0.13 z"
     style="fill:#00aeef;fill-opacity:1;fill-rule:nonzero;stroke:#ffffff;stroke-width:0.288;stroke-linecap:butt;stroke-linejoin:miter;stroke-miterlimit:10;stroke-dasharray:none;stroke-opacity:1"
     id="path16404-9" />
</svg>
