<?xml version="1.0" encoding="UTF-8" standalone="no"?>
<svg
   viewBox="0 0 27.969999 27.97"
   version="1.1"
   id="svg2395"
   sodipodi:docname="instagram.svg"
   width="27.969999"
   height="27.969999"
   inkscape:export-filename="../fa014882/pib2019.scg.svg"
   inkscape:export-xdpi="96"
   inkscape:export-ydpi="96"
   xmlns:inkscape="http://www.inkscape.org/namespaces/inkscape"
   xmlns:sodipodi="http://sodipodi.sourceforge.net/DTD/sodipodi-0.dtd"
   xmlns="http://www.w3.org/2000/svg"
   xmlns:svg="http://www.w3.org/2000/svg">
  <defs
     id="defs2399" />
  <sodipodi:namedview
     id="namedview2397"
     pagecolor="#ffffff"
     bordercolor="#000000"
     borderopacity="0.25"
     inkscape:showpageshadow="2"
     inkscape:pageopacity="0.0"
     inkscape:pagecheckerboard="0"
     inkscape:deskcolor="#d1d1d1"
     showgrid="false" />
  <path
     d="M 27.97,13.98494 C 27.97,6.26267 21.709,0 13.9851,0 6.2612,0 0,6.26267 0,13.98494 0,21.7088 6.2612,27.97 13.9851,27.97 21.709,27.97 27.97,21.7088 27.97,13.98494 Z M 19.2771,8.3032 17.3886,10.06027 H 10.582 L 8.693,8.3032 c 0,0 0.9396,-1.3176 2.4892,-1.49066 1.5174,-0.16747 2.0436,0.7624 2.8036,0.80013 0.7597,-0.0377 1.2881,-0.9676 2.8021,-0.80013 1.5516,0.17306 2.4892,1.49066 2.4892,1.49066 z M 20.422,19.604 c 0,0 -0.4086,1.57347 -2.2965,1.57347 H 9.8484 c -1.8898,0 -2.3002,-1.57347 -2.3002,-1.57347 -1.2359,-5.45346 2.5232,-8.41213 2.5232,-8.41213 h 7.8273 c 0,0 3.7592,2.95867 2.5233,8.41213 z M 14.3139,15.65814 V 14.5436 c 0,-0.0564 0.023,-0.0869 0.063,-0.0869 0.031,0 0.1108,0.0468 0.1656,0.1016 0.072,0.0723 0.1341,0.17387 0.198,0.3088 0.016,0.0321 0.039,0.048 0.064,0.048 0.031,0 0.11,-0.04 0.166,-0.0721 l 0.5612,-0.27667 c 0.031,-0.0159 0.048,-0.0397 0.048,-0.0628 0,-0.0468 -0.08,-0.19 -0.1908,-0.34773 -0.2136,-0.3016 -0.5134,-0.52347 -1.0119,-0.56947 -0.048,-0.008 -0.063,-0.0329 -0.063,-0.0797 v -0.22987 c 0,-0.0548 -0.024,-0.0779 -0.08,-0.0779 h -0.4104 c -0.056,0 -0.08,0.0231 -0.08,0.0779 v 0.21467 c 0,0.048 -0.031,0.0779 -0.079,0.0779 -0.8463,0.0484 -1.3527,0.62547 -1.3527,1.4 0,0.88667 0.7752,1.226399 1.3844,1.51107 0.032,0.0161 0.047,0.04 0.047,0.0709 v 1.242801 c 0,0.054 -0.031,0.0789 -0.079,0.0789 -0.047,0 -0.15,-0.0328 -0.2369,-0.0948 -0.095,-0.0711 -0.1819,-0.189729 -0.2525,-0.372 -0.017,-0.0317 -0.04,-0.048 -0.064,-0.048 -0.032,0 -0.071,0.0231 -0.1187,0.048 l -0.6005,0.300941 c -0.032,0.0147 -0.048,0.0389 -0.048,0.0631 0,0.0476 0.079,0.22147 0.2056,0.39534 0.2218,0.307729 0.5374,0.521599 1.1149,0.54546 0.056,0 0.079,0.0237 0.079,0.0797 v 0.2128 c 0,0.0548 0.024,0.0789 0.08,0.0789 h 0.4104 c 0.056,0 0.08,-0.0241 0.08,-0.0789 v -0.2208 c 0,-0.048 0.015,-0.0717 0.063,-0.0797 0.7832,-0.0717 1.2817,-0.6176 1.2817,-1.3916 0,-0.92679 -0.7121,-1.30546 -1.3054,-1.58999 -0.016,-0.009 -0.039,-0.0321 -0.039,-0.0632 z m 0,1.2416 c 0,-0.056 0.023,-0.0869 0.063,-0.0869 0.04,0 0.1108,0.0393 0.1819,0.1028 0.1178,0.102 0.1976,0.22907 0.1976,0.39573 0,0.16587 -0.071,0.3076 -0.1818,0.4104 -0.063,0.0564 -0.1576,0.1184 -0.1977,0.1184 -0.04,0 -0.063,-0.0315 -0.063,-0.0863 z M 13.7432,15.3656 c 0,0.0548 -0.023,0.0881 -0.063,0.0881 -0.055,0 -0.1738,-0.0805 -0.2528,-0.13614 -0.1349,-0.0948 -0.2136,-0.19693 -0.2136,-0.3484 0,-0.18906 0.086,-0.35493 0.2299,-0.45893 0.079,-0.0536 0.1817,-0.1016 0.2285,-0.1016 0.04,0 0.071,0.0321 0.071,0.0876 z"
     style="fill:#1148a8;fill-opacity:1;fill-rule:nonzero;stroke:none;stroke-width:1.33333"
     id="path16416-7" />
</svg>
