<?xml version="1.0" encoding="UTF-8" standalone="no"?>
<svg
   viewBox="0 0 27.4703 27.4704"
   version="1.1"
   id="svg2395"
   sodipodi:docname="instagram.svg"
   width="27.470301"
   height="27.4704"
   inkscape:export-filename="../9e7e39b3/gobernacionLogoBlanco.svg"
   inkscape:export-xdpi="96"
   inkscape:export-ydpi="96"
   xmlns:inkscape="http://www.inkscape.org/namespaces/inkscape"
   xmlns:sodipodi="http://sodipodi.sourceforge.net/DTD/sodipodi-0.dtd"
   xmlns="http://www.w3.org/2000/svg"
   xmlns:svg="http://www.w3.org/2000/svg">
  <defs
     id="defs2399" />
  <sodipodi:namedview
     id="namedview2397"
     pagecolor="#ffffff"
     bordercolor="#000000"
     borderopacity="0.25"
     inkscape:showpageshadow="2"
     inkscape:pageopacity="0.0"
     inkscape:pagecheckerboard="0"
     inkscape:deskcolor="#d1d1d1"
     showgrid="false" />
  <path
     d="M 27.4703,13.7352 C 27.4703,6.14974 21.3211,0 13.7352,0 6.1492,0 0,6.14974 0,13.7352 c 0,7.58587 6.1492,13.7352 13.7352,13.7352 7.5859,0 13.7351,-6.14933 13.7351,-13.7352 z M 6.9718,16.79694 c 0.8976,0.61039 2.482,0.94493 4.0213,0.94493 0.3508,0 0.7004,-0.0147 1.0511,-0.0457 0.092,0.64027 0.3046,1.2348 0.624,1.76734 -0.4872,0.0919 -1.0507,0.1376 -1.6751,0.1376 -2.4983,0 -4.0213,-0.80814 -4.0213,-1.3864 z m 5.0422,0.18413 c -0.3205,0.0299 -0.655,0.0449 -1.0209,0.0449 -2.4983,0 -4.0213,-0.80733 -4.0067,-1.3704 v -1.41773 c 0.898,0.6096 2.4836,0.94493 4.0219,0.94493 0.4875,0 0.9899,-0.0307 1.4773,-0.10666 -0.2886,0.57946 -0.4565,1.21973 -0.4716,1.90493 z M 15.015,7.886 c 0,0.57827 -1.5236,1.3852 -4.0219,1.3852 -2.4983,0 -4.0213,-0.80693 -4.0213,-1.3852 0,-0.57933 1.523,-1.38666 4.0213,-1.38666 2.4983,0 4.0219,0.80733 4.0219,1.38666 z m 0,2.58894 c 0,0.57946 -1.5236,1.3864 -4.0219,1.3864 -2.4983,0 -4.0213,-0.80694 -4.0213,-1.3864 V 9.0584 c 0.8976,0.60934 2.482,0.94534 4.0213,0.94534 1.5383,0 3.1227,-0.32094 4.0219,-0.94534 z m 0,2.28546 c -0.7923,0.30467 -1.4938,0.8232 -2.0108,1.47747 -0.5794,0.12173 -1.2499,0.1988 -2.0111,0.1988 -2.4983,0 -4.0213,-0.808 -4.0213,-1.38747 v -1.41546 c 0.8976,0.60813 2.482,0.94413 4.0213,0.94413 1.5383,0 3.1227,-0.31973 4.0219,-0.94413 z m 5.4848,4.32654 c 0,2.14866 -1.7371,3.88493 -3.8846,3.88493 -2.149,0 -3.8857,-1.75214 -3.8857,-3.88493 0,-2.1328 1.7517,-3.88467 3.8857,-3.88467 2.1475,0 3.8846,1.73667 3.8846,3.88467 z m -4.54,-0.8372 c 0.03,-0.24494 0.2585,-0.42747 0.5024,-0.42747 h 0.4266 c 0.1527,0 0.2895,0.10653 0.3198,0.2596 0.016,0.0457 0.046,0.076 0.092,0.076 h 0.4872 c 0.046,0 0.091,-0.0461 0.091,-0.10693 -0.045,-0.47134 -0.4415,-0.85307 -0.9287,-0.88294 v -0.4724 c 0,-0.0461 -0.046,-0.0923 -0.091,-0.0923 h -0.472 c -0.046,0 -0.092,0.0461 -0.092,0.0923 v 0.4872 c -0.5783,0.0759 -1.0356,0.6096 -0.9748,1.234 0.061,0.59414 0.5941,1.0204 1.1887,1.0204 h 0.3046 c 0.2736,0 0.5027,0.22907 0.4724,0.51867 -0.031,0.24373 -0.2596,0.42666 -0.5033,0.42666 h -0.4268 c -0.1515,0 -0.2895,-0.10693 -0.3193,-0.25893 -0.015,-0.0457 -0.046,-0.0767 -0.092,-0.0767 h -0.4875 c -0.045,0 -0.091,0.046 -0.091,0.10694 0.046,0.472 0.4419,0.85266 0.9291,0.884 v 0.47133 c 0,0.0461 0.046,0.0919 0.092,0.0919 h 0.472 c 0.045,0 0.091,-0.0457 0.091,-0.0919 v -0.4876 c 0.5022,-0.0907 0.9286,-0.4872 0.9748,-1.00493 0.076,-0.67014 -0.4567,-1.24947 -1.1271,-1.24947 h -0.3663 c -0.274,0 -0.5026,-0.22866 -0.4717,-0.51746"
     style="fill:#1148a8;fill-opacity:1;fill-rule:nonzero;stroke:none;stroke-width:1.33333"
     id="path16452-3" />
</svg>
