<?xml version="1.0" encoding="UTF-8" standalone="no"?>
<svg
   viewBox="0 0 27.969999 27.969601"
   version="1.1"
   id="svg2395"
   sodipodi:docname="instagram.svg"
   width="27.969999"
   height="27.969601"
   inkscape:export-filename="../8afd1274/regalias.svg"
   inkscape:export-xdpi="96"
   inkscape:export-ydpi="96"
   xmlns:inkscape="http://www.inkscape.org/namespaces/inkscape"
   xmlns:sodipodi="http://sodipodi.sourceforge.net/DTD/sodipodi-0.dtd"
   xmlns="http://www.w3.org/2000/svg"
   xmlns:svg="http://www.w3.org/2000/svg">
  <defs
     id="defs2399" />
  <sodipodi:namedview
     id="namedview2397"
     pagecolor="#ffffff"
     bordercolor="#000000"
     borderopacity="0.25"
     inkscape:showpageshadow="2"
     inkscape:pageopacity="0.0"
     inkscape:pagecheckerboard="0"
     inkscape:deskcolor="#d1d1d1"
     showgrid="false" />
  <path
     d="M 13.985,0 C 6.2612,0 0,6.26227 0,13.98494 c 0,7.723461 6.2612,13.984661 13.985,13.984661 7.7238,0 13.985,-6.2612 13.985,-13.984661 C 27.97,6.26227 21.7088,0 13.985,0 Z m 1.6259,6.71174 c 2.1449,0 3.8828,1.73813 3.8828,3.88186 0,1.39654 -0.7389,2.61694 -1.8448,3.30027 -0.1051,-0.34573 -0.4225,-0.60133 -0.804,-0.60133 h -4.0217 c -0.6762,-0.6992 -1.095,-1.64894 -1.095,-2.69894 0,-2.14373 1.7382,-3.88186 3.8827,-3.88186 z m 6.8679,7.53293 -3.817,3.815731 c -0.158,0.158 -0.3726,0.2476 -0.5965,0.2476 h -7.9581 l -3.4224,3.4216 c -0.1647,0.1648 -0.3806,0.2464 -0.5964,0.2464 -0.2158,0 -0.4316,-0.0816 -0.5964,-0.2464 -0.15381,-0.15386 -0.2347,-0.35266 -0.245,-0.5544 -0.01,-0.11306 0.001,-2.6552 -10e-4,-2.80893 0,-0.2208 0.078,-0.44453 0.2468,-0.61347 L 9.162,14.0836 c 0.1576,-0.15866 0.3727,-0.2464 0.596,-0.2464 h 6.6429 c 0.4664,0 0.8444,0.3764 0.8444,0.84214 0,0.46746 -0.378,0.84466 -0.8444,0.84466 h -2.7238 c -0.093,0 -0.169,0.076 -0.169,0.168941 v 0.16893 c 0,0.0931 0.076,0.16787 0.169,0.16787 h 4.631 L 21.2867,13.05 c 0.3296,-0.32893 0.8633,-0.32893 1.1929,0 0.3284,0.33067 0.3295,0.86507 0,1.19467"
     style="fill:#1148a8;fill-opacity:1;fill-rule:nonzero;stroke:none;stroke-width:1.33333"
     id="path16446-6" />
</svg>
