<?xml version="1.0" encoding="UTF-8" standalone="no"?>
<svg
   viewBox="0 0 27.969601 27.969731"
   version="1.1"
   id="svg2395"
   sodipodi:docname="instagram.svg"
   width="27.969601"
   height="27.96973"
   inkscape:export-filename="../3d9ded7a/poblacion.svg"
   inkscape:export-xdpi="96"
   inkscape:export-ydpi="96"
   xmlns:inkscape="http://www.inkscape.org/namespaces/inkscape"
   xmlns:sodipodi="http://sodipodi.sourceforge.net/DTD/sodipodi-0.dtd"
   xmlns="http://www.w3.org/2000/svg"
   xmlns:svg="http://www.w3.org/2000/svg">
  <defs
     id="defs2399" />
  <sodipodi:namedview
     id="namedview2397"
     pagecolor="#ffffff"
     bordercolor="#000000"
     borderopacity="0.25"
     inkscape:showpageshadow="2"
     inkscape:pageopacity="0.0"
     inkscape:pagecheckerboard="0"
     inkscape:deskcolor="#d1d1d1"
     showgrid="false" />
  <path
     d="M 27.9696,13.98466 C 27.9696,6.262 21.7084,0 13.985,0 6.2611,0 0,6.262 0,13.98466 c 0,7.72347 6.2611,13.98507 13.985,13.98507 7.7234,0 13.9846,-6.2616 13.9846,-13.98507 z M 15.9258,5.53786 c 0,1.07 -0.8682,1.93814 -1.9378,1.93814 -1.0741,0 -1.9418,-0.86814 -1.9418,-1.93814 0,-1.07386 0.8677,-1.9412 1.9418,-1.9412 1.0696,0 1.9378,0.86734 1.9378,1.9412 z m 2.0069,10.2928 c 0.039,0.35974 -0.2097,0.684 -0.5793,0.71614 -0.3698,0.0333 -0.6846,-0.2468 -0.7163,-0.57934 l -0.5465,-4.7796 -0.093,3.3672 0.3741,9.00427 c 0.026,0.4196 -0.2884,0.78507 -0.7083,0.81107 -0.02,0.003 -0.038,0.003 -0.053,0.003 -0.3984,0 -0.734,-0.30573 -0.7638,-0.70826 l -0.8622,-7.1324 -0.8621,7.1324 c -0.03,0.40253 -0.3659,0.70826 -0.7641,0.70826 -0.015,0 -0.033,0 -0.054,-0.003 -0.4184,-0.026 -0.7343,-0.39147 -0.7071,-0.81107 l 0.3745,-9.00427 -0.093,-3.3672 -0.5464,4.7796 c -0.033,0.33254 -0.3467,0.61267 -0.7167,0.57934 -0.3692,-0.0321 -0.618,-0.3564 -0.579,-0.71614 0,0 0.3965,-5.61493 0.7401,-6.33906 0.4633,-0.97814 1.2585,-1.5632 3.2076,-1.5632 1.9476,0 2.744,0.58506 3.2077,1.5632 0.3432,0.72413 0.74,6.33906 0.74,6.33906"
     style="fill:#1148a8;fill-opacity:1;fill-rule:nonzero;stroke:none;stroke-width:1.33333"
     id="path16436-7" />
</svg>
