<?xml version="1.0" encoding="UTF-8" standalone="no"?>
<svg
   viewBox="0 0 27.969999 27.969599"
   version="1.1"
   id="svg2395"
   sodipodi:docname="instagram.svg"
   width="27.969999"
   height="27.969599"
   inkscape:export-filename="../cc967f28/pibNorteLogo.svg"
   inkscape:export-xdpi="96"
   inkscape:export-ydpi="96"
   xmlns:inkscape="http://www.inkscape.org/namespaces/inkscape"
   xmlns:sodipodi="http://sodipodi.sourceforge.net/DTD/sodipodi-0.dtd"
   xmlns="http://www.w3.org/2000/svg"
   xmlns:svg="http://www.w3.org/2000/svg">
  <defs
     id="defs2399" />
  <sodipodi:namedview
     id="namedview2397"
     pagecolor="#ffffff"
     bordercolor="#000000"
     borderopacity="0.25"
     inkscape:showpageshadow="2"
     inkscape:pageopacity="0.0"
     inkscape:pagecheckerboard="0"
     inkscape:deskcolor="#d1d1d1"
     showgrid="false" />
  <path
     d="M 27.97,13.98493 C 27.97,6.2612 21.709,0 13.9851,0 6.2612,0 0,6.2612 0,13.98493 c 0,7.723469 6.2612,13.984669 13.9851,13.984669 7.7239,0 13.9849,-6.2612 13.9849,-13.984669 z M 9.8594,12.18173 9.1054,12.828 c -0.072,0.0719 -0.1071,0.1788 -0.072,0.25067 l 0.2158,0.96906 c 0.072,0.1788 -0.18,0.35867 -0.3586,0.25054 L 8.0291,13.7608 c -0.072,-0.0359 -0.1795,-0.0359 -0.2516,0 l -0.8611,0.53747 c -0.1788,0.144 -0.3945,-0.0359 -0.3582,-0.25054 l 0.2154,-0.96906 c 0.036,-0.10774 0,-0.1788 -0.072,-0.25067 L 5.9484,12.14587 c -0.1796,-0.1432 -0.072,-0.39494 0.1428,-0.43094 l 0.9328,-0.0359 c 0.1082,0 0.1799,-0.0717 0.2159,-0.14254 l 0.3949,-0.93306 c 0.1066,-0.21587 0.3942,-0.21587 0.4664,0 l 0.3946,0.93306 c 0.036,0.0708 0.1066,0.14254 0.2146,0.14254 l 1.0051,0.0719 c 0.2147,0 0.3227,0.288 0.1436,0.4308 z m 0.215,7.103999 c 0,0.1792 -0.144,0.35907 -0.3586,0.35907 H 6.1274 c -0.2147,0 -0.3583,-0.17987 -0.3583,-0.35907 v -3.47973 c 0,-0.179999 0.1436,-0.358669 0.3583,-0.358669 h 3.5884 c 0.1786,0 0.3586,0.1428 0.3586,0.358669 z m 5.8836,-9.220529 -0.7533,0.646 c -0.072,0.0711 -0.1081,0.17867 -0.072,0.25053 l 0.2153,0.96907 c 0.072,0.1792 -0.1794,0.35867 -0.3582,0.25093 l -0.861,-0.53853 c -0.072,-0.0359 -0.18,-0.0359 -0.2517,0 l -0.8613,0.53853 c -0.1784,0.144 -0.3943,-0.0359 -0.3584,-0.25093 l 0.2158,-0.96907 c 0.035,-0.10773 0,-0.17946 -0.072,-0.25053 l -0.8251,-0.646 C 11.7965,9.9211996 11.9041,9.6343996 12.1189,9.6343996 l 1.005,-0.0719 c 0.1077,0 0.18,-0.0717 0.2146,-0.1428 l 0.3955,-0.9328 c 0.1069,-0.21586 0.3949,-0.21586 0.4656,0 l 0.3957,0.9328 c 0.035,0.0711 0.107,0.1428 0.2147,0.1428 l 1.0049,0.0719 c 0.2147,0 0.3224,0.2868 0.143,0.4308004 z m 0.1795,9.220529 c 0,0.1792 -0.1436,0.35907 -0.3583,0.35907 H 12.191 c -0.2147,0 -0.3584,-0.17987 -0.3584,-0.39493 V 13.68907 c 0,-0.17987 0.1437,-0.35987 0.3584,-0.35987 h 3.5882 c 0.1788,0 0.3583,0.144 0.3583,0.35987 z m 5.8481,-7.139859 -0.7533,0.64586 c -0.072,0.0723 -0.1081,0.1792 -0.072,0.25107 l 0.2154,1.00493 c 0.072,0.1788 -0.1794,0.35867 -0.3582,0.25054 l -0.861,-0.53747 c -0.072,-0.0359 -0.18,-0.0359 -0.2517,0 l -0.8613,0.53747 c -0.1788,0.144 -0.3947,-0.0359 -0.3587,-0.25054 l 0.2516,-0.96906 c 0.035,-0.10774 0,-0.1788 -0.072,-0.25067 l -0.8609,-0.68213 c -0.18,-0.1432 -0.072,-0.39494 0.1428,-0.43094 l 1.0049,-0.0717 c 0.1077,0 0.18,-0.0719 0.2159,-0.14293 l 0.3941,-0.9328 c 0.1071,-0.21574 0.3951,-0.21574 0.4668,0 l 0.3947,0.9328 c 0.036,0.0711 0.1069,0.14293 0.2146,0.14293 l 1.0046,0.0717 c 0.215,0 0.3228,0.28774 0.1433,0.43094 z m 0.2158,7.139859 c 0,0.1792 -0.144,0.35907 -0.3591,0.35907 h -3.5879 c -0.2146,0 -0.3586,-0.17987 -0.3586,-0.35907 v -3.47973 c 0,-0.179999 0.144,-0.358669 0.3586,-0.358669 h 3.5879 c 0.1799,0 0.3591,0.1428 0.3591,0.358669 z"
     style="fill:#1148a8;fill-opacity:1;fill-rule:nonzero;stroke:none;stroke-width:1.33333"
     id="path16450-3" />
</svg>
