<?xml version="1.0" encoding="UTF-8" standalone="no"?>
<svg
   viewBox="0 0 27.969999 27.969996"
   version="1.1"
   id="svg2395"
   sodipodi:docname="instagram.svg"
   width="27.969999"
   height="27.969995"
   inkscape:export-filename="../faa32e30/pocision.svg"
   inkscape:export-xdpi="96"
   inkscape:export-ydpi="96"
   xmlns:inkscape="http://www.inkscape.org/namespaces/inkscape"
   xmlns:sodipodi="http://sodipodi.sourceforge.net/DTD/sodipodi-0.dtd"
   xmlns="http://www.w3.org/2000/svg"
   xmlns:svg="http://www.w3.org/2000/svg">
  <defs
     id="defs2399" />
  <sodipodi:namedview
     id="namedview2397"
     pagecolor="#ffffff"
     bordercolor="#000000"
     borderopacity="0.25"
     inkscape:showpageshadow="2"
     inkscape:pageopacity="0.0"
     inkscape:pagecheckerboard="0"
     inkscape:deskcolor="#d1d1d1"
     showgrid="false" />
  <path
     d="M 27.97,13.98506 C 27.97,6.2612 21.709,0 13.9851,0 6.2612,0 0,6.2612 0,13.98506 c 0,7.723737 6.2612,13.984936 13.9851,13.984936 7.7239,0 13.9849,-6.261199 13.9849,-13.984936 z M 15.2496,13.702 h -0.021 c 0.082,-0.14254 1.1022,-0.53027 2.4276,-0.53027 1.3255,0 2.2635,0.28573 2.5084,0.48973 l -0.041,0.10174 c -0.2857,0.20373 -0.918,0.44853 -2.4672,0.44853 -1.5504,0 -2.3456,-0.38773 -2.4065,-0.50973 z m 2.4066,1.14213 c 0.693,0 1.7533,-0.10213 2.4672,-0.38787 v 0.6736 c -0.3054,0.1836 -1.2038,0.44867 -2.4672,0.44867 -0.5564,0.008 -1.1108,-0.0545 -1.6522,-0.18413 -0.226,-0.16707 -0.4728,-0.30494 -0.7342,-0.40747 v -0.55067 c 0.6534,0.30574 1.6932,0.40787 2.3864,0.40787 z m 2.4672,1.38747 c -0.8968,0.0196 -2.0398,0.20373 -2.4884,0.6724 h -0.6112 c -0.086,-0.27107 -0.2018,-0.53067 -0.3466,-0.7756 0.3247,0.0423 0.6512,0.062 0.979,0.062 0.693,0 1.7533,-0.1028 2.4672,-0.38747 z m -2.9775,1.528 v -0.22374 h 0.3261 v 0.7344 h -0.3662 c 0.024,-0.16853 0.038,-0.33973 0.04,-0.51066 z m -0.6116,1.815331 c 0.1629,-0.21387 0.2997,-0.44667 0.4075,-0.6932 h 0.5506 v 0.0197 0.73427 c -0.3197,10e-4 -0.6402,-0.0188 -0.9581,-0.0608 z M 12.0484,16.74106 c 0.3826,-0.82506 1.2114,-1.3508 2.1203,-1.34666 h 0.02 c 1.2956,0 2.3454,1.05 2.3454,2.3456 0.01,0.37946 -0.076,0.754 -0.2437,1.093731 -0.5787,1.17173 -1.9967,1.6532 -3.1684,1.07453 -1.1708,-0.57706 -1.6524,-1.995601 -1.0737,-3.167201 z M 11.6399,16.2512 c -1.1071,-0.61 -1.7953,-1.77374 -1.7941,-3.0384 0.033,-1.61827 1.1942,-2.99254 2.784,-3.29534 1.8586,-0.35373 3.6529,0.86587 4.0066,2.724 -0.9793,0.1228 -1.999,0.42814 -1.999,1.08094 0.001,0.0159 0.01,0.0305 0.021,0.0408 v 1.06093 c -0.161,-0.0341 -0.3258,-0.048 -0.4899,-0.0412 -1.0427,0.009 -2.0039,0.5672 -2.5288,1.46827 z M 5.0328,15.17066 h 0.5103 c 1.2888,0.0317 2.3236,1.076 2.3444,2.3652 V 17.8216 H 5.869 c -0.4687,0 -0.8362,-0.26534 -0.8362,-0.734 z m 2.8547,-6.2812 c 0,1.24454 -1.0809,2.20227 -2.3444,2.20227 H 5.0328 V 9.298 c 0,-0.007 0,-0.0147 0,-0.0212 0,-0.46107 0.3746,-0.836 0.8362,-0.836 h 2.0185 z m 13.6635,2.20227 h -0.6123 c -0.02,0 -0.041,0 -0.061,0 -1.2167,-0.0107 -2.1936,-1.0068 -2.1819,-2.22227 V 8.4408 h 1.937 c 0.4845,-10e-4 0.886,0.37386 0.9181,0.8572 z m 0,5.20067 -0.8164,-0.0608 v -2.20387 c 0.065,-0.0956 0.1001,-0.20933 0.102,-0.32573 0,-0.89694 -2.0799,-1.14147 -3.1804,-1.14147 H 17.2275 C 17.0306,11.28986 16.2407,10.1888 15.1,9.59586 c -1.9778,-1.028 -4.4164,-0.25773 -5.4452,1.72 -1.028,1.97867 -0.2589,4.4172 1.7202,5.4448 -0.1051,0.2948 -0.1599,0.60547 -0.163,0.91814 v 0.1428 H 8.5002 V 17.53586 C 8.4782,15.9088 7.1702,14.5912 5.5431,14.5584 H 5.0328 v -2.85507 h 0.5103 c 1.6101,0 2.9571,-1.22267 2.9571,-2.81387 V 8.4408 h 9.5834 v 0.42866 c 0,0.02 0,0.0412 10e-4,0.0608 0.022,1.55414 1.3006,2.79614 2.854,2.77307 h 0.6123 z m 1.3662,1.08093 c -0.1017,0.16253 -0.918,0.5296 -2.4472,0.5296 -1.4884,0 -2.2833,-0.34667 -2.4065,-0.5296 0.1021,-0.164 0.8773,-0.53067 2.4065,-0.53067 1.5292,0 2.5492,0.36667 2.4472,0.53067 z m 0,1.345601 c -0.062,0.1424 -1.0805,0.53027 -2.4472,0.53027 -1.3666,0 -2.1816,-0.30654 -2.3864,-0.48947 V 18.12733 c 0.6535,0.28573 1.4895,0.38747 2.3864,0.38747 0.8968,0 1.8562,-0.1228 2.4472,-0.42827 z m 0.02,1.34547 c -0.061,0.1428 -0.8768,0.53026 -2.426,0.53026 -1.5504,0 -2.3456,-0.38746 -2.4065,-0.55026 v -0.57147 c 0.6116,0.28573 1.4472,0.38773 2.3653,0.38773 0.918,0 1.8758,-0.12213 2.4672,-0.42853 z M 12.5167,17.74 c 0,0.91613 0.7363,1.661061 1.652,1.672001 0.9233,0 1.6725,-0.74827 1.6725,-1.672001 -0.011,-0.91614 -0.757,-1.6524 -1.6725,-1.6524 -0.912,0 -1.652,0.7404 -1.652,1.6524 z m 0.5915,0 c 0,-0.58547 0.4754,-1.06094 1.0605,-1.06094 0.5855,0 1.0599,0.47547 1.0599,1.06094 0,0.58506 -0.4744,1.060531 -1.0599,1.060531 -0.5851,0 -1.0605,-0.475471 -1.0605,-1.060531"
     style="fill:#1148a8;fill-opacity:1;fill-rule:nonzero;stroke:none;stroke-width:1.33333"
     id="path16454-4" />
</svg>
