<?xml version="1.0" encoding="UTF-8" standalone="no"?>
<svg
   viewBox="0 0 124 124"
   version="1.1"
   id="svg2395"
   sodipodi:docname="instagram.svg"
   width="124"
   height="124"
   inkscape:export-filename="../1cd83d4a/face.svg"
   inkscape:export-xdpi="96"
   inkscape:export-ydpi="96"
   xmlns:inkscape="http://www.inkscape.org/namespaces/inkscape"
   xmlns:sodipodi="http://sodipodi.sourceforge.net/DTD/sodipodi-0.dtd"
   xmlns="http://www.w3.org/2000/svg"
   xmlns:svg="http://www.w3.org/2000/svg">
  <defs
     id="defs2399" />
  <sodipodi:namedview
     id="namedview2397"
     pagecolor="#ffffff"
     bordercolor="#000000"
     borderopacity="0.25"
     inkscape:showpageshadow="2"
     inkscape:pageopacity="0.0"
     inkscape:pagecheckerboard="0"
     inkscape:deskcolor="#d1d1d1"
     showgrid="false" />
  <circle
     style="opacity:0.964449;fill:#029bd7;fill-opacity:1;stroke-width:9.82677;stroke-linecap:round;paint-order:stroke markers fill"
     id="path2820-9"
     cx="62"
     cy="62"
     r="62" />
  <path
     d="M 54.06665,74.443376 74.653659,61.999996 54.06665,49.556626 v 24.88675 m 45.854722,-32.47721 c 0.515668,1.94947 0.872668,4.56257 1.110658,7.88081 0.27768,3.31822 0.39667,6.18021 0.39667,8.66887 l 0.238,3.48415 c 0,9.08366 -0.63467,15.76161 -1.745328,20.03383 -0.99167,3.73302 -3.29236,6.13874 -6.86236,7.17568 -1.86434,0.53921 -5.275673,0.91251 -10.511673,1.16138 -5.15668,0.29035 -9.87701,0.41478 -14.24034,0.41478 l -6.307009,0.24887 c -16.62035,0 -26.97335,-0.66365 -31.05902,-1.82503 -3.57,-1.03694 -5.87067,-3.44266 -6.86233,-7.17568 -0.51567,-1.94946 -0.87267,-4.56257 -1.11068,-7.8808 -0.27766,-3.31824 -0.39666,-6.18021 -0.39666,-8.66889 l -0.238,-3.48414 c 0,-9.08366 0.63466,-15.76161 1.74534,-20.03383 0.99166,-3.73302 3.29233,-6.13873 6.86233,-7.17568 1.86433,-0.53921 5.27567,-0.91251 10.51168,-1.16138 5.15666,-0.29035 9.877,-0.41478 14.24034,-0.41478 l 6.307,-0.24887 c 16.620339,0 26.973349,0.66365 31.059022,1.82503 3.57,1.03695 5.87069,3.44266 6.86236,7.17568 z"
     id="path2643"
     style="fill:#ffffff;stroke-width:4.05622" />
</svg>
